<?xml version="1.0" standalone="no"?>
<!DOCTYPE svg PUBLIC "-//W3C//DTD SVG 20010904//EN"
 "http://www.w3.org/TR/2001/REC-SVG-20010904/DTD/svg10.dtd">
<svg version="1.0" xmlns="http://www.w3.org/2000/svg"
 width="2250.000000pt" height="2250.000000pt" viewBox="0 0 2250.000000 2250.000000"
 preserveAspectRatio="xMidYMid meet">

<g transform="translate(0.000000,2250.000000) scale(0.100000,-0.100000)"
fill="#000000" stroke="none">
<path d="M10668 17129 c-48 -5 -125 -15 -170 -22 -46 -8 -144 -24 -218 -36
-74 -12 -169 -31 -210 -43 -41 -11 -104 -26 -140 -34 -67 -14 -283 -83 -360
-115 -25 -10 -65 -23 -90 -30 -120 -30 -561 -242 -733 -352 -31 -20 -60 -37
-63 -37 -3 0 -19 -11 -36 -25 -16 -14 -35 -25 -42 -25 -7 0 -21 -8 -32 -18
-10 -10 -47 -35 -81 -56 -34 -21 -70 -47 -79 -57 -9 -10 -21 -19 -27 -19 -5 0
-23 -11 -41 -25 -17 -14 -62 -50 -101 -80 -38 -30 -77 -61 -85 -68 -8 -7 -51
-43 -95 -80 -143 -120 -425 -413 -542 -564 -26 -33 -78 -99 -114 -145 -36 -45
-91 -121 -122 -168 -31 -47 -61 -90 -66 -96 -5 -7 -18 -27 -28 -45 -10 -19
-30 -52 -44 -74 -59 -92 -119 -196 -119 -206 0 -6 -11 -25 -25 -43 -14 -18
-25 -36 -25 -41 0 -4 -20 -49 -44 -99 -92 -192 -100 -209 -186 -446 -21 -58
-45 -125 -54 -149 -9 -24 -16 -51 -16 -61 0 -9 -14 -59 -30 -111 -17 -52 -42
-146 -55 -209 -13 -63 -31 -147 -39 -185 -8 -39 -20 -113 -26 -165 -24 -221
-30 -246 -66 -288 -18 -22 -48 -45 -66 -52 -39 -16 -197 -108 -216 -127 -8 -8
-28 -21 -45 -30 -18 -9 -41 -24 -52 -34 -11 -10 -67 -55 -125 -101 -161 -126
-341 -318 -445 -474 -19 -28 -41 -56 -49 -63 -9 -8 -16 -19 -16 -25 0 -7 -13
-30 -29 -52 -39 -52 -164 -299 -197 -388 -14 -39 -34 -89 -45 -111 -10 -22
-25 -69 -33 -105 -8 -36 -22 -84 -30 -108 -9 -24 -27 -119 -41 -212 -35 -239
-35 -513 0 -754 14 -93 34 -197 44 -231 11 -34 24 -87 30 -117 5 -30 21 -79
34 -109 14 -30 30 -72 37 -94 7 -22 27 -69 45 -105 18 -36 36 -76 40 -88 4
-13 19 -45 35 -70 15 -26 47 -81 70 -122 114 -198 276 -390 480 -571 97 -85
239 -199 265 -211 11 -5 58 -34 105 -64 47 -30 101 -61 120 -70 19 -9 58 -27
85 -40 188 -91 393 -159 570 -190 199 -35 390 -55 442 -48 80 12 73 -224 73
2582 0 2692 -3 2551 50 2706 11 33 20 66 20 75 0 17 92 285 130 381 40 97 93
208 157 330 74 138 94 172 123 216 17 23 30 47 30 52 0 6 11 20 25 33 13 13
25 28 25 32 0 4 19 33 43 64 23 30 47 65 54 76 6 12 21 28 31 37 11 8 23 22
28 31 21 37 181 224 270 314 77 77 122 118 214 193 41 33 84 69 95 79 11 10
36 30 57 45 21 15 45 34 55 43 27 22 84 63 117 82 121 75 174 108 195 122 114
74 434 232 541 266 30 9 73 25 95 36 23 10 65 23 94 29 30 5 88 21 130 34 183
57 442 103 656 115 99 6 209 13 245 16 62 4 502 -18 585 -31 159 -23 524 -109
645 -151 196 -69 243 -89 438 -186 155 -78 200 -103 221 -120 9 -7 64 -42 124
-77 59 -35 107 -66 107 -70 0 -3 17 -16 38 -28 21 -11 47 -29 59 -39 12 -11
34 -28 49 -39 15 -10 35 -26 44 -35 9 -8 25 -22 37 -30 80 -57 279 -243 375
-351 65 -73 170 -199 188 -224 8 -12 42 -56 75 -99 33 -43 64 -85 70 -94 5 -9
19 -29 30 -46 30 -44 110 -175 127 -210 204 -404 192 -376 269 -605 12 -36 30
-87 40 -115 37 -102 105 -417 118 -546 6 -57 16 -151 23 -209 8 -76 13 -679
15 -2168 4 -1909 3 -2068 -13 -2115 -24 -75 -53 -113 -189 -246 -74 -74 -180
-161 -226 -187 -11 -6 -27 -19 -37 -28 -23 -22 -115 -82 -182 -118 -218 -118
-256 -136 -400 -186 -25 -8 -74 -26 -110 -39 -37 -13 -127 -39 -200 -58 -74
-19 -160 -42 -190 -50 -30 -8 -66 -15 -80 -15 -14 0 -68 -9 -120 -20 -104 -22
-305 -46 -472 -56 -144 -9 -188 9 -188 80 0 14 -9 49 -20 78 -27 72 -81 116
-157 128 -76 13 -1380 13 -1455 0 -78 -12 -131 -55 -158 -127 -19 -50 -20 -78
-20 -378 0 -302 1 -328 20 -379 27 -71 72 -111 143 -126 85 -17 1494 -10 1527
9 66 36 107 105 125 208 11 69 38 79 230 88 150 6 498 49 610 75 28 6 122 27
210 45 88 18 180 42 205 53 25 10 62 22 84 26 21 4 88 28 150 52 115 47 139
58 318 143 59 28 112 51 118 51 5 0 10 3 10 8 0 4 17 16 38 27 20 10 51 28 67
40 17 12 52 34 79 49 26 16 56 34 65 41 9 8 48 37 86 66 112 84 295 251 314
288 23 41 102 69 291 100 177 30 255 50 365 94 127 50 194 79 240 101 28 13
66 31 85 40 19 9 44 22 54 28 67 44 164 104 182 114 21 11 99 69 157 116 98
80 322 298 369 360 15 20 34 42 41 50 27 27 154 215 191 283 72 130 117 220
142 280 52 122 124 348 139 433 8 48 24 130 34 182 39 196 36 514 -8 765 -36
201 -42 225 -83 355 -45 145 -68 199 -152 369 -83 168 -81 165 -142 256 -136
201 -300 390 -439 504 -212 176 -342 263 -545 365 -41 21 -82 45 -91 53 -21
17 -35 75 -44 168 -6 64 -16 119 -74 410 -27 133 -84 352 -109 418 -11 28 -27
75 -35 102 -24 79 -92 256 -115 302 -12 23 -22 47 -22 54 0 17 -137 293 -192
385 -26 45 -48 86 -48 93 0 6 -4 11 -9 11 -5 0 -19 19 -31 43 -44 86 -224 348
-279 407 -9 9 -32 38 -51 64 -151 204 -465 528 -670 691 -162 130 -199 158
-219 170 -9 6 -54 37 -101 70 -47 34 -105 73 -130 88 -66 40 -78 48 -150 93
-36 23 -83 51 -105 63 -22 12 -47 25 -55 30 -30 18 -345 171 -352 171 -4 0
-36 13 -70 29 -35 16 -90 36 -123 46 -33 9 -74 23 -91 30 -70 29 -311 106
-378 119 -40 9 -88 22 -108 30 -20 9 -85 22 -144 31 -60 9 -170 27 -244 40
-74 14 -187 29 -250 35 -135 12 -725 11 -852 -1z"/>
<path d="M13715 14322 c-64 -39 -60 10 -65 -746 -6 -802 -1 -767 -85 -687 -28
26 -72 76 -100 112 -42 55 -316 335 -356 364 -8 6 -41 33 -74 61 -33 27 -76
61 -95 74 -19 13 -37 27 -40 30 -13 13 -99 70 -108 70 -5 0 -15 7 -22 15 -6 8
-31 25 -53 38 -23 13 -83 49 -134 80 -50 32 -97 57 -105 57 -7 0 -29 10 -48
21 -19 12 -75 37 -123 56 -49 19 -96 38 -105 43 -58 33 -305 99 -558 150 -194
38 -603 47 -879 19 -166 -17 -447 -78 -535 -116 -25 -11 -63 -23 -84 -27 -22
-4 -58 -16 -80 -26 -23 -10 -70 -31 -106 -45 -36 -15 -85 -38 -110 -51 -25
-13 -52 -24 -61 -24 -9 0 -27 -8 -40 -18 -21 -16 -94 -60 -187 -112 -15 -8
-67 -42 -116 -75 -48 -33 -100 -67 -115 -75 -14 -8 -28 -17 -31 -20 -3 -3 -45
-39 -95 -80 -118 -98 -350 -329 -405 -405 -25 -33 -66 -85 -92 -116 -26 -31
-48 -60 -48 -63 0 -3 -19 -34 -42 -68 -43 -63 -108 -167 -108 -174 0 -2 -20
-37 -45 -77 -25 -41 -45 -78 -45 -83 0 -5 -13 -36 -30 -69 -42 -86 -119 -270
-129 -313 -5 -20 -19 -62 -30 -92 -32 -88 -81 -314 -99 -450 -11 -86 -16 -213
-16 -405 -1 -307 10 -446 51 -615 13 -58 30 -134 38 -170 13 -63 89 -289 135
-400 48 -116 175 -364 204 -400 7 -8 16 -22 19 -31 3 -9 26 -44 51 -77 25 -33
46 -63 46 -67 0 -4 12 -22 27 -40 16 -17 63 -76 105 -131 105 -134 287 -311
494 -482 11 -9 40 -30 65 -47 24 -16 46 -33 49 -36 3 -3 25 -19 50 -34 25 -15
47 -31 50 -35 3 -4 32 -22 65 -40 33 -18 71 -40 85 -50 43 -29 369 -180 389
-180 6 0 30 -9 52 -20 62 -32 243 -86 369 -110 63 -12 171 -33 240 -48 117
-24 143 -25 425 -26 326 0 317 -1 709 81 150 31 421 122 506 170 19 11 62 30
94 42 32 12 70 31 84 41 13 11 29 20 35 20 12 0 185 98 210 119 10 8 33 24 52
36 50 31 147 100 172 124 12 12 26 21 31 21 5 0 20 12 34 28 14 15 56 53 94
84 157 130 364 365 488 554 10 16 31 47 46 69 112 163 265 480 321 665 11 36
33 106 49 155 16 50 34 122 40 161 5 39 17 98 25 130 60 226 60 786 -1 1036
-13 53 -24 110 -24 126 0 17 -9 59 -20 94 -12 34 -31 104 -44 153 -38 144 -40
147 -83 143 l-38 -3 -5 -560 c-5 -551 -5 -561 -27 -600 -12 -22 -114 -133
-227 -248 -127 -128 -212 -221 -221 -244 -18 -42 -14 -51 54 -125 22 -23 48
-63 57 -87 17 -45 17 -45 -10 -97 -19 -37 -101 -125 -289 -312 -292 -289 -323
-312 -391 -288 -21 7 -62 33 -89 57 -83 72 -79 70 -132 55 -25 -8 -56 -25 -69
-39 -29 -31 -96 -43 -134 -23 -51 26 -67 53 -66 112 0 44 5 59 27 82 26 27 47
78 47 113 0 9 -13 31 -30 49 -93 99 -111 148 -81 216 12 26 111 132 290 309
295 293 324 315 389 294 44 -14 102 -48 102 -59 0 -5 18 -22 40 -38 37 -27 44
-29 76 -19 31 10 47 21 91 69 33 34 139 142 151 152 20 17 115 116 153 160
l34 39 5 786 c3 432 9 794 14 804 4 9 13 17 20 17 14 -1 95 -120 125 -187 23
-49 25 -52 55 -46 17 3 33 7 35 9 6 5 1 1757 -5 1791 -14 76 -111 116 -179 75z
m-2446 -2107 c138 -18 214 -37 305 -76 37 -16 72 -29 78 -29 5 0 24 -11 42
-25 18 -14 36 -25 39 -25 5 0 43 -25 130 -88 38 -28 187 -181 187 -193 0 -5
13 -23 28 -41 15 -18 41 -58 56 -88 16 -30 39 -76 52 -101 13 -26 24 -53 24
-60 0 -8 10 -34 21 -59 24 -51 59 -271 59 -370 0 -78 -34 -316 -48 -333 -6 -7
-19 -40 -30 -74 -23 -69 -76 -162 -154 -270 -49 -69 -151 -170 -249 -248 -42
-33 -218 -125 -269 -140 -14 -4 -41 -16 -61 -26 -37 -19 -326 -62 -364 -54
-11 2 -74 9 -140 16 -98 10 -139 19 -220 51 -55 22 -116 48 -135 58 -19 11
-55 29 -80 41 -80 39 -257 194 -307 269 -9 14 -21 30 -27 35 -20 17 -116 169
-116 183 0 7 -11 34 -24 60 -54 106 -103 379 -93 517 7 87 60 312 85 360 9 17
26 53 37 80 70 166 244 352 459 491 44 29 217 96 293 114 68 15 216 37 268 39
22 0 91 -6 154 -14z"/>
<path d="M10945 11959 c-66 -16 -173 -57 -218 -84 -23 -13 -62 -34 -85 -46
-24 -12 -49 -30 -55 -41 -7 -10 -17 -18 -23 -18 -17 0 -161 -158 -185 -204
-11 -22 -24 -43 -29 -46 -8 -5 -87 -197 -102 -245 -14 -49 -10 -343 6 -400 37
-132 111 -286 170 -354 34 -40 132 -134 172 -166 131 -105 364 -185 541 -185
118 0 324 55 402 107 19 13 37 23 42 23 23 0 222 162 243 199 5 8 25 36 44 61
19 25 40 56 46 70 6 14 19 36 28 50 26 38 77 205 90 294 33 223 -71 530 -240
711 -33 35 -147 135 -155 135 -3 0 -34 17 -68 39 -35 21 -104 53 -154 71 -87
32 -96 33 -260 36 -93 2 -188 -1 -210 -7z m372 -476 c120 -55 222 -172 256
-293 18 -67 19 -148 2 -217 -20 -80 -35 -111 -86 -178 -52 -69 -95 -100 -186
-137 -65 -26 -92 -31 -163 -32 -187 -2 -335 90 -417 259 -37 78 -38 83 -38
191 0 109 1 112 38 185 45 88 48 92 112 148 138 120 322 148 482 74z"/>
<path d="M12802 10305 c-76 -74 -145 -147 -152 -160 -22 -40 0 -82 91 -172 86
-87 124 -109 161 -98 31 10 296 280 304 309 9 37 -17 74 -115 169 -125 120
-115 122 -289 -48z"/>
</g>
</svg>
